<?xml version="1.0" standalone="no"?>
<!DOCTYPE svg PUBLIC "-//W3C//DTD SVG 20010904//EN"
 "http://www.w3.org/TR/2001/REC-SVG-20010904/DTD/svg10.dtd">
<svg version="1.0" xmlns="http://www.w3.org/2000/svg"
 width="300.000000pt" height="300.000000pt" viewBox="0 0 300.000000 300.000000"
 preserveAspectRatio="xMidYMid meet">
<metadata>
Created by potrace 1.11, written by Peter Selinger 2001-2013
</metadata>
<g transform="translate(0.000000,300.000000) scale(0.100000,-0.100000)"
fill="#000000" stroke="none">
<path d="M1467 2924 c-1 -1 -45 -4 -98 -8 -91 -6 -250 -40 -334 -70 -70 -26
-158 -64 -205 -89 -54 -29 -160 -95 -170 -107 -3 -3 -17 -13 -31 -22 -14 -9
-62 -51 -108 -94 -236 -222 -396 -529 -438 -839 -15 -115 -9 -361 12 -465 2
-14 7 -38 11 -55 14 -72 69 -227 111 -310 47 -94 132 -226 183 -285 113 -129
272 -265 360 -306 8 -4 17 -11 20 -15 22 -31 340 -151 434 -164 27 -3 53 -8
57 -11 24 -14 255 -23 349 -13 117 13 145 17 212 35 35 9 70 17 78 19 8 2 38
12 65 22 60 24 78 30 85 31 23 2 260 137 271 155 4 5 13 6 20 2 8 -5 11 -5 7
0 -8 8 1 18 68 70 21 17 53 46 72 65 19 19 38 34 43 32 5 -1 8 1 7 5 -4 11 44
63 52 58 4 -3 7 3 6 12 0 10 6 18 14 18 8 0 14 8 12 17 -1 9 7 23 18 31 11 7
17 17 13 20 -3 4 1 8 10 8 30 2 35 4 43 11 3 4 -3 6 -15 3 -23 -4 -28 9 -8 22
6 4 20 25 29 45 11 23 25 38 35 38 11 0 14 3 7 8 -15 9 56 150 74 146 7 -1 8
0 2 3 -5 2 -10 14 -10 24 0 13 4 18 12 13 6 -4 8 -3 5 3 -4 6 3 37 14 69 12
32 23 70 25 84 2 14 9 45 14 70 32 149 35 375 6 525 -4 26 -19 97 -21 110 -17
74 -85 248 -132 333 -197 359 -552 626 -948 712 -89 20 -326 44 -338 34z"/>
<path d="M2792 858 c-7 -7 -12 -17 -12 -22 0 -6 5 -3 11 7 6 9 15 14 21 11 7
-4 8 -2 4 4 -9 15 -9 15 -24 0z"/>
<path d="M2730 740 c-9 -6 -10 -10 -3 -10 6 0 15 5 18 10 8 12 4 12 -15 0z"/>
</g>
</svg>
